<svg width="332" height="438" viewBox="0 0 332 438" fill="none" xmlns="http://www.w3.org/2000/svg">
<g style="mix-blend-mode:color-burn" opacity="0.3">
<path d="M-763 -438L-382.632 218.999L331.999 218.999L-48.369 -438L-763 -438Z" fill="url(#paint0_linear_390_11720)"/>
<path fill-rule="evenodd" clip-rule="evenodd" d="M-313.474 218.999L-336.527 218.999L-716.895 -438L-693.842 -438L-313.474 218.999ZM-290.421 218.999L-670.79 -438L-647.737 -438L-267.369 218.999L-290.421 218.999ZM-601.632 -438L-624.684 -438L-244.316 218.999L-221.264 218.999L-601.632 -438ZM-578.579 -438L-555.526 -438L-175.158 218.999L-198.211 218.999L-578.579 -438ZM-509.421 -438L-532.474 -438L-152.106 218.999L-129.053 218.999L-509.421 -438ZM-486.369 -438L-463.316 -438L-82.9479 218.999L-106.001 218.999L-486.369 -438ZM-417.211 -438L-440.263 -438L-59.8953 218.999L-36.8427 218.999L-417.211 -438ZM-394.158 -438L-371.106 -438L9.26252 218.999L-13.7901 218.999L-394.158 -438ZM-325 -438L-348.053 -438L32.3151 218.999L55.3677 218.999L-325 -438ZM-301.948 -438L-278.895 -438L101.473 218.999L78.4204 218.999L-301.948 -438ZM-232.79 -438L-255.842 -438L124.526 218.999L147.578 218.999L-232.79 -438ZM-209.737 -438L-186.685 -438L193.683 218.999L170.631 218.999L-209.737 -438ZM-140.579 -438L-163.632 -438L216.736 218.999L239.789 218.999L-140.579 -438ZM-117.527 -438L-94.4742 -438L285.894 218.999L262.841 218.999L-117.527 -438ZM-48.369 -438L-71.4216 -438L308.946 218.999L331.999 218.999L-48.369 -438ZM-382.632 218.999L-359.579 218.999L-739.947 -438L-763 -438L-382.632 218.999Z" fill="url(#paint1_linear_390_11720)"/>
<path d="M-382.633 219L-763.001 875.999L-48.3698 875.999L331.998 219L-382.633 219Z" fill="url(#paint2_linear_390_11720)"/>
<path fill-rule="evenodd" clip-rule="evenodd" d="M-693.843 875.999L-716.896 875.999L-336.528 219L-313.475 219L-693.843 875.999ZM-670.791 875.999L-290.423 219L-267.37 219L-647.738 875.999L-670.791 875.999ZM-221.265 219L-244.318 219L-624.685 875.999L-601.633 875.999L-221.265 219ZM-198.212 219L-175.16 219L-555.528 875.999L-578.58 875.999L-198.212 219ZM-129.055 219L-152.107 219L-532.475 875.999L-509.422 875.999L-129.055 219ZM-106.002 219L-82.9493 219L-463.317 875.999L-486.37 875.999L-106.002 219ZM-36.8441 219L-59.8967 219L-440.264 875.999L-417.212 875.999L-36.8441 219ZM-13.7915 219L9.26114 219L-371.107 875.999L-394.159 875.999L-13.7915 219ZM55.3664 219L32.3138 219L-348.054 875.999L-325.001 875.999L55.3664 219ZM78.419 219L101.472 219L-278.896 875.999L-301.949 875.999L78.419 219ZM147.577 219L124.524 219L-255.844 875.999L-232.791 875.999L147.577 219ZM170.629 219L193.682 219L-186.686 875.999L-209.738 875.999L170.629 219ZM239.787 219L216.735 219L-163.633 875.999L-140.581 875.999L239.787 219ZM262.84 219L285.892 219L-94.4754 875.999L-117.528 875.999L262.84 219ZM331.998 219L308.945 219L-71.4227 875.999L-48.3698 875.999L331.998 219ZM-763.001 875.999L-739.948 875.999L-359.581 219L-382.633 219L-763.001 875.999Z" fill="url(#paint3_linear_390_11720)"/>
</g>
<defs>
<linearGradient id="paint0_linear_390_11720" x1="-573.341" y1="-109.5" x2="-36.5804" y2="-419.399" gradientUnits="userSpaceOnUse">
<stop stop-color="#353535"/>
<stop offset="1" stop-color="white"/>
</linearGradient>
<linearGradient id="paint1_linear_390_11720" x1="-549.763" y1="109.5" x2="38.1614" y2="-489.281" gradientUnits="userSpaceOnUse">
<stop stop-color="#181818"/>
<stop offset="1" stop-color="#181818" stop-opacity="0"/>
</linearGradient>
<linearGradient id="paint2_linear_390_11720" x1="-417.211" y1="276.631" x2="33.1143" y2="634.6" gradientUnits="userSpaceOnUse">
<stop stop-color="#5F5C5B"/>
<stop offset="1" stop-color="white"/>
</linearGradient>
<linearGradient id="paint3_linear_390_11720" x1="-434.501" y1="230.526" x2="9.26932" y2="809.473" gradientUnits="userSpaceOnUse">
<stop stop-color="#181818"/>
<stop offset="1" stop-color="#181818" stop-opacity="0"/>
</linearGradient>
</defs>
</svg>
