<?xml version="1.0" encoding="UTF-8"?><svg id="Layer_2" xmlns="http://www.w3.org/2000/svg" xmlns:xlink="http://www.w3.org/1999/xlink" viewBox="0 0 69.31 66.44"><defs><style>.cls-1{fill:url(#radial-gradient);}</style><radialGradient id="radial-gradient" cx="34.66" cy="33.22" fx="34.66" fy="33.22" r="40.36" gradientTransform="matrix(1, 0, 0, 1, 0, 0)" gradientUnits="userSpaceOnUse"><stop offset="0" stop-color="#f0ffe4"/><stop offset="1" stop-color="#fbedb2"/></radialGradient></defs><g id="FAQ"><g id="Layer_80"><path class="cls-1" d="M12.34,40.85c1.24,1.21,1.8,2.94,1.51,4.65l-2.54,14.79c-.74,4.29,3.77,7.56,7.62,5.53l13.28-6.98c1.53-.8,3.36-.8,4.89,0l13.28,6.98c3.85,2.02,8.35-1.25,7.62-5.53l-2.54-14.79c-.29-1.7,.27-3.44,1.51-4.65l10.75-10.48c3.12-3.04,1.4-8.33-2.91-8.96l-14.85-2.16c-1.71-.25-3.19-1.32-3.95-2.87l-6.64-13.46c-1.93-3.9-7.49-3.9-9.42,0l-6.64,13.46c-.76,1.55-2.24,2.62-3.95,2.87l-14.85,2.16C.19,22.04-1.52,27.33,1.59,30.37l10.75,10.48Z"/></g></g></svg>